<svg xmlns="http://www.w3.org/2000/svg" viewBox="0 0 75 75"><defs><style>.cls-1{fill:#48a9ac;}.cls-2{fill:#fff;}</style></defs><g id="Layer_2" data-name="Layer 2"><g id="Layer_1-2" data-name="Layer 1"><circle class="cls-1" cx="37.5" cy="37.5" r="37.5" transform="translate(-0.64 74.35) rotate(-89.02)"/><path class="cls-2" d="M49.07,33.81H44a1.92,1.92,0,0,1-2-1,2.13,2.13,0,0,1-.09-1.27,3.82,3.82,0,0,0,.06-.66c0-.82-1-1.55-1.85-1.55s-1.85.75-1.85,1.55a3.82,3.82,0,0,0,.06.66,2.13,2.13,0,0,1-.09,1.27,1.91,1.91,0,0,1-2,1H32.1V31.93h4.4s0-.08,0-.11a5.31,5.31,0,0,1-.09-1,3.79,3.79,0,0,1,3.73-3.42,3.73,3.73,0,0,1,3.73,3.42,6.4,6.4,0,0,1-.09,1,.36.36,0,0,0,0,.11H47.2V19.1A1.69,1.69,0,0,0,46.93,18a1.7,1.7,0,0,0-1.1-.27H32.1V15.9H45.83a3.47,3.47,0,0,1,2.43.82,3.38,3.38,0,0,1,.81,2.45Z"/><path class="cls-2" d="M15.11,32.87V19.34a3.58,3.58,0,0,1,.81-2.63,3.5,3.5,0,0,1,2.53-.82H33V21a1.76,1.76,0,0,1-1.75,2.13,4.31,4.31,0,0,1-.55-.05,3,3,0,0,0-.66-.07c-.82,0-1.55,1-1.55,1.85s.75,1.85,1.55,1.85a3.72,3.72,0,0,0,.66-.06,4.15,4.15,0,0,1,.55-.05,1.75,1.75,0,0,1,.72.14,1.91,1.91,0,0,1,1,2v4.15H31.15V28.72a2.26,2.26,0,0,0,0-.25l-.11,0a5.22,5.22,0,0,1-1,.09,3.78,3.78,0,0,1-3.42-3.73,3.73,3.73,0,0,1,3.42-3.72,5.13,5.13,0,0,1,1,.09h.11a2,2,0,0,0,0-.24V17.77H18.45a1.88,1.88,0,0,0-1.2.28A1.85,1.85,0,0,0,17,19.25V32.87Z"/><path class="cls-2" d="M33,50H18.54A4,4,0,0,1,16,49a3.74,3.74,0,0,1-.87-2.61V32.05H20.2a1.92,1.92,0,0,1,2,1,2.13,2.13,0,0,1,.09,1.27,3.71,3.71,0,0,0-.07.66c0,.82,1,1.55,1.86,1.55s1.85-.75,1.85-1.55a2.89,2.89,0,0,0-.07-.66,2.18,2.18,0,0,1,.09-1.26,1.92,1.92,0,0,1,2-1H33v5.38a5.24,5.24,0,0,1,.72-.06,3.64,3.64,0,1,1,0,7.27,4,4,0,0,1-.72-.06ZM18.57,48.09H31.15V44.24a2,2,0,0,1,.65-1.6,1,1,0,0,1,.91-.11,2.69,2.69,0,0,0,1,.24,1.76,1.76,0,0,0,0-3.52,2.8,2.8,0,0,0-1,.23,1,1,0,0,1-.9-.11,2,2,0,0,1-.65-1.6V33.92H27.69s0,.07,0,.11a5.13,5.13,0,0,1,.09,1,3.78,3.78,0,0,1-3.72,3.42A3.73,3.73,0,0,1,20.34,35a5.22,5.22,0,0,1,.09-1,.52.52,0,0,1,0-.11H17V46.44h0a2,2,0,0,0,.33,1.25A2.27,2.27,0,0,0,18.57,48.09Z"/><path class="cls-2" d="M47.62,59.11h0a3.57,3.57,0,0,1-2.45-1.29L35,47.6l3.6-3.6a2.2,2.2,0,0,1,1.53-.79,1.51,1.51,0,0,1,.59.11,2.16,2.16,0,0,1,1,.84,3.82,3.82,0,0,0,.42.51A1.3,1.3,0,0,0,43,45a2.13,2.13,0,0,0,1.44-.56A2.08,2.08,0,0,0,45,43.2a1.45,1.45,0,0,0-.32-1.15,3.82,3.82,0,0,0-.51-.42,2.09,2.09,0,0,1-.84-1A1.92,1.92,0,0,1,44,38.53l3.6-3.6,3.81,3.81a4.32,4.32,0,0,1,.46-.55A3.63,3.63,0,1,1,57,43.33a3.19,3.19,0,0,1-.55.46l3.81,3.81L50.1,57.79A3.67,3.67,0,0,1,47.62,59.11ZM37.6,47.6l9,9a1.9,1.9,0,0,0,1.06.68h0a2,2,0,0,0,1.1-.72l0,0,8.88-8.88-2.73-2.72a2,2,0,0,1-.67-1.59,1,1,0,0,1,.57-.72,2.63,2.63,0,0,0,.9-.57,1.76,1.76,0,0,0-1.25-3,1.71,1.71,0,0,0-1.24.52,2.75,2.75,0,0,0-.57.9,1,1,0,0,1-.72.56,2,2,0,0,1-1.59-.67l-2.72-2.73-2.27,2.28-.18.18.1.06a6.7,6.7,0,0,1,.75.63,3.26,3.26,0,0,1,.86,2.64A3.75,3.75,0,0,1,43,46.89,3.2,3.2,0,0,1,40.74,46a7.61,7.61,0,0,1-.62-.75l-.06-.09-.19.17Zm13.34-7.94Z"/></g></g></svg>