<svg xmlns="http://www.w3.org/2000/svg" viewBox="0 0 75 75"><defs><style>.cls-1{fill:#48a9ac;}.cls-2{fill:#fff;}.cls-3{fill:none;}</style></defs><g id="Layer_2" data-name="Layer 2"><g id="Layer_1-2" data-name="Layer 1"><circle class="cls-1" cx="37.5" cy="37.5" r="37.5" transform="translate(-0.64 74.35) rotate(-89.02)"/><path class="cls-2" d="M29.55,46.94a4.19,4.19,0,1,1,4.19-4.19A4.19,4.19,0,0,1,29.55,46.94Zm0-6.91a2.73,2.73,0,1,0,2.73,2.72A2.72,2.72,0,0,0,29.55,40Z"/><path class="cls-2" d="M27.11,28.37a3.93,3.93,0,1,1,3.94-3.93A3.94,3.94,0,0,1,27.11,28.37Zm0-6.4a2.47,2.47,0,1,0,2.48,2.47A2.48,2.48,0,0,0,27.11,22Z"/><path class="cls-2" d="M57.82,34.9l-6.74-3.6.25-.61a14.79,14.79,0,0,0,1-3.69c0-.24.05-.49.06-.72.14-1.7.28-3.45,2.26-4.22a2.14,2.14,0,0,1,.86-.16l2.84-5.47A2.77,2.77,0,0,1,59.67,15a1.92,1.92,0,0,1,1.52.06l.05,0a1.84,1.84,0,0,1,.9,1.08,2.55,2.55,0,0,1-.25,1.77l-2,3.87a1.59,1.59,0,0,1,.27.12,1.46,1.46,0,0,1,.63.76,2.15,2.15,0,0,1,1,.54,1.79,1.79,0,0,1,.53,1.07,2.54,2.54,0,0,1,.83.92,1.6,1.6,0,0,1,.11,1.39,5.41,5.41,0,0,0-.12.56,6.4,6.4,0,0,1-2.4,4.48,6,6,0,0,0-2.05,1.92l0,.12-.06.06Zm-4.9-4.27L57.35,33l0,0a6.85,6.85,0,0,1,2.56-2.55,5,5,0,0,0,1.8-3.54,4.18,4.18,0,0,1,.2-.87,1,1,0,0,0-.48-.57l-.71-.13.14-.71a.39.39,0,0,0-.07-.34.68.68,0,0,0-.45-.2l-.8.15,0-.81a.6.6,0,0,0-.06-.24,1,1,0,0,0-.46.09l-2,.88,1.34-2.53,2.22-4.38c.08-.14.31-.65,0-.86a.38.38,0,0,0-.34,0,1.45,1.45,0,0,0-.57.69l0,.07-3.55,6.84-.63-.56a.7.7,0,0,0-.3.07c-1.08.42-1.19,1.26-1.33,3,0,.24,0,.49-.07.75A15.27,15.27,0,0,1,52.92,30.63Z"/><path class="cls-2" d="M12.41,35.84a1.87,1.87,0,0,1-.42,0l-.35-.06-.17-.31c-.48-.9-1.23-2.53-1.27-2.6l-.32-.7.72-.28c.27-.12,1.12-.57,1.3-1.13.38-1.14,1.8-2.64,2.56-2.72l.16,1.44a.27.27,0,0,0,.11,0,4.25,4.25,0,0,0-1.44,1.76,3.35,3.35,0,0,1-1.47,1.67c.21.44.49,1,.74,1.52a1.29,1.29,0,0,0,1-.74c.36-.88,1.92-1.85,2.39-2.13l.74,1.25A6,6,0,0,0,15,34.19,2.76,2.76,0,0,1,12.41,35.84Z"/><path class="cls-3" d="M32.23,28.67a2.29,2.29,0,0,1-.08-.41l-.55.56,0,0h0A15.48,15.48,0,0,1,30.21,30l-.05.07-.07,0a4.8,4.8,0,0,1-3.73.85,5.71,5.71,0,0,1-3.67-2c-.68-.86-4.09-7.89-4.81-9.38a1.31,1.31,0,0,0-1.76-.47.91.91,0,0,0-.57.55A2.16,2.16,0,0,0,15.69,21l0,0,4.76,11.34a44.53,44.53,0,0,1,1.41,4.44,3.6,3.6,0,0,1,1.58,1.54l.06.13,0,.14a31.1,31.1,0,0,0,1.57,4.88c1.2,2.81,2.57,4.36,3.84,4.36,3.12,0,4.54-2.19,6.76-6.95L35.4,41Z"/><path class="cls-3" d="M40.61,38.9a1.08,1.08,0,0,0-.59-.15,1.48,1.48,0,0,0-.46.08.86.86,0,0,0-.56.46l0,.07-.08.19C35.76,46.41,34,50.19,29,50.19c-2.31,0-4.32-1.94-6-5.77a31.29,31.29,0,0,1-1.65-5.1,1,1,0,0,0-.78-.46,1.16,1.16,0,0,0-.43.08c-.8.31-.35,1.75-.34,1.76l0,.08c.6,1.93,3.63,11.59,4,12.6a19.44,19.44,0,0,1,.64,3.08v.13c0,.45.08,4.34.08,5.39h9.83v0h0c0-.05,0-1.14.11-4.37a21,21,0,0,1,.81-5.5v0l0-.12h0c2.16-4.25,5.68-11.18,5.9-11.7A1.23,1.23,0,0,0,40.61,38.9Z"/><path class="cls-3" d="M34.47,26.76a1.24,1.24,0,0,0-.84,1.51v0l2.83,11,.33-.73.07-.14a3,3,0,0,1,1.59-1.65c-.6-2.29-2.38-8.93-2.53-9.46A1,1,0,0,0,34.47,26.76Z"/><path class="cls-3" d="M44.3,32.75a2.48,2.48,0,1,0,2.47,2.48A2.48,2.48,0,0,0,44.3,32.75Z"/><path class="cls-3" d="M36,25.43a1.86,1.86,0,0,1,.49.31c.76-1.7,3-6.23,3.15-6.44a2,2,0,0,0,.19-1.23.64.64,0,0,0-.36-.39c-.85-.42-1.6-.06-2.22,1.09-.38.7-2.37,4.22-3.89,6.91a3.14,3.14,0,0,1,.61-.29A2.56,2.56,0,0,1,36,25.43Z"/><path class="cls-2" d="M44.3,31.29a4,4,0,0,0-3.94,3.94,3.85,3.85,0,0,0,.22,1.27,3.3,3.3,0,0,1,1.24.45,3.68,3.68,0,0,1,1.61,2.11,4.14,4.14,0,0,0,.87.1,3.94,3.94,0,0,0,0-7.87Zm0,6.41a2.48,2.48,0,1,1,2.47-2.47A2.48,2.48,0,0,1,44.3,37.7Z"/><path class="cls-2" d="M41,20a3.43,3.43,0,0,0,.28-2.35,2.13,2.13,0,0,0-1.1-1.24c-1.59-.8-3.14-.17-4.15,1.69-.53,1-4.13,7.34-5.31,9.42A4.72,4.72,0,0,1,29.19,29a3.36,3.36,0,0,1-2.61.55,4.28,4.28,0,0,1-2.75-1.48c-.45-.57-3.09-5.9-4.65-9.13l0-.05a2.77,2.77,0,0,0-3.63-1.09,2.42,2.42,0,0,0-1.35,1.37,3.43,3.43,0,0,0,.19,2.47l4.74,11.27c.37,1,.91,2.62,1.2,3.65h.28a3,3,0,0,1,1.29.29,44.53,44.53,0,0,0-1.41-4.44L15.71,21.07l0,0a2.16,2.16,0,0,1-.14-1.35.91.91,0,0,1,.57-.55,1.31,1.31,0,0,1,1.76.47C18.6,21.1,22,28.13,22.69,29a5.71,5.71,0,0,0,3.67,2,4.8,4.8,0,0,0,3.73-.85l.07,0,.05-.07a15.48,15.48,0,0,0,1.37-1.2h0l0,0,.19-.19A3,3,0,0,1,33.73,25c1.46-2.58,3.18-5.63,3.53-6.27.62-1.15,1.37-1.51,2.22-1.09a.64.64,0,0,1,.36.39,2,2,0,0,1-.19,1.23c-.1.2-2.09,4.13-3,6.05a3.28,3.28,0,0,1,1,1.25l.06,0C38.23,25.35,40.92,20,41,20Z"/><path class="cls-2" d="M19.75,36.67l-5.33-9.85-1.1.81,5.25,9.59a3,3,0,0,1,.75-.42Z"/><path class="cls-2" d="M36.5,25.74a1.86,1.86,0,0,0-.49-.31,2.56,2.56,0,0,0-2,0,3.14,3.14,0,0,0-.61.29l-.7,1.24.25.22-.37.69c-.08.1-.22.25-.4.43a2.29,2.29,0,0,0,.08.41l3.26,12.72.23-.44.75-1.62-2.83-11v0a1.24,1.24,0,0,1,.84-1.51,1,1,0,0,1,1.46.59c.15.53,1.93,7.17,2.53,9.46a2.17,2.17,0,0,1,.35-.15,3.82,3.82,0,0,1,1.06-.2c-.61-2.36-2.45-9.19-2.54-9.52v-.05a2.77,2.77,0,0,0-.27-.53l-.69-.28Z"/><path class="cls-2" d="M32.92,27.14l-.25-.22.7-1.24a2.58,2.58,0,0,0-1.22,2.58c.18-.18.32-.33.4-.43Z"/><path class="cls-2" d="M36.5,25.74l-.14.34.69.28A2.79,2.79,0,0,0,36.5,25.74Z"/><path class="cls-3" d="M37,54.67H48.58a1.76,1.76,0,0,0,.58-.07,2.8,2.8,0,0,0,0-.29,2.46,2.46,0,0,1,0-.26,25,25,0,0,1,2.25-11.81l4.5-8.35-3-1.58-3.62,6.63a4.94,4.94,0,0,1-.81,1.27,3.37,3.37,0,0,1-2.83,1.2H43.23c-.85,1.75-5.2,10.29-5.81,11.48A17.65,17.65,0,0,0,37,54.67Z"/><path class="cls-3" d="M40.61,38.9a1.08,1.08,0,0,0-.59-.15,1.48,1.48,0,0,0-.46.08.86.86,0,0,0-.56.46l0,.07-.08.19C35.76,46.41,34,50.19,29,50.19c-2.31,0-4.32-1.94-6-5.77a31.29,31.29,0,0,1-1.65-5.1,1,1,0,0,0-.78-.46,1.16,1.16,0,0,0-.43.08c-.8.31-.35,1.75-.34,1.76l0,.08c.6,1.93,3.63,11.59,4,12.6a19.44,19.44,0,0,1,.64,3.08v.13c0,.45.08,4.34.08,5.39h9.83v0h0c0-.05,0-1.14.11-4.37a21,21,0,0,1,.81-5.5v0l0-.12h0c2.16-4.25,5.68-11.18,5.9-11.7A1.23,1.23,0,0,0,40.61,38.9Z"/><path class="cls-2" d="M57.87,33.28l-5.61-2.93-4.32,7.93,0,.08c0,.07-.71,1.72-2.21,1.59H43.57a2.87,2.87,0,0,1-.22,1.19l-.12.27H45.6a3.37,3.37,0,0,0,2.83-1.2,4.94,4.94,0,0,0,.81-1.27l3.62-6.63,3,1.58-4.5,8.35a25,25,0,0,0-2.25,11.81,2.46,2.46,0,0,0,0,.26,2.8,2.8,0,0,1,0,.29,1.76,1.76,0,0,1-.58.07H37c-.06.42-.13.91-.18,1.46H48.58a2.13,2.13,0,0,0,1.66-.54,1.7,1.7,0,0,0,.37-1.37c0-.06,0-.13,0-.19v0a24.12,24.12,0,0,1,2.07-11.08Z"/><path class="cls-2" d="M34.25,63.87H24.41A1.87,1.87,0,0,1,22.65,62c0-.93-.08-4.92-.08-5.37A18.59,18.59,0,0,0,22,54c-.38-1.13-3.85-12.23-4-12.7-.35-1.08-.5-3.34,1.46-4.09a2.82,2.82,0,0,1,3.61,1.38l0,.09,0,.09a32.17,32.17,0,0,0,1.59,5c.91,2.11,2.37,4.62,4.23,4.62,3.87,0,5.23-3,8.22-9.55l.07-.15A2.74,2.74,0,0,1,39,37.05a3.14,3.14,0,0,1,2.65.26A3.06,3.06,0,0,1,43,41c-.32.75-5.46,10.82-5.93,11.76a20,20,0,0,0-.71,4.93c-.1,3-.11,4.18-.11,4.28a1.85,1.85,0,0,1-2,1.93Zm-9.72-1.46h9.72a.62.62,0,0,0,.41-.11.58.58,0,0,0,.11-.32v0s0-1.13.1-4.34a20.28,20.28,0,0,1,.8-5.39l0-.1c1.56-3.06,5.66-11.12,5.92-11.73a1.65,1.65,0,0,0-.8-1.84,1.67,1.67,0,0,0-1.41-.12,1.25,1.25,0,0,0-.81.72l0,.05-.08.18c-3.06,6.7-4.74,10.4-9.55,10.4-2.13,0-4-1.86-5.57-5.52a31.71,31.71,0,0,1-1.65-5.1A1.37,1.37,0,0,0,20,38.55c-1.17.45-.6,2.26-.59,2.28s3.62,11.57,4,12.68a18.81,18.81,0,0,1,.63,3v.07c0,.18.08,4.45.08,5.44C24.1,62.31,24.38,62.39,24.53,62.41Z"/></g></g></svg>