<svg xmlns="http://www.w3.org/2000/svg" viewBox="0 0 61.5 50.67"><defs><style>.cls-1{fill:#fff;}</style></defs><g id="Layer_2" data-name="Layer 2"><g id="Layer_1-2" data-name="Layer 1"><path class="cls-1" d="M51.54,30.75a10,10,0,1,0,10,10A10,10,0,0,0,51.54,30.75Zm0,18.26a8.3,8.3,0,1,1,8.3-8.3A8.31,8.31,0,0,1,51.54,49Z"/><path class="cls-1" d="M55.86,38.23a1.31,1.31,0,1,0-1.31,1.31A1.31,1.31,0,0,0,55.86,38.23Z"/><path class="cls-1" d="M49.75,38.23a1.31,1.31,0,1,0-1.3,1.31A1.3,1.3,0,0,0,49.75,38.23Z"/><path class="cls-1" d="M51.5,45.57A6.39,6.39,0,0,1,47.3,44l-.1-.09a.77.77,0,0,1-.07-1.09.76.76,0,0,1,1.08-.07l.1.09a4.84,4.84,0,0,0,6.37,0l.1-.08a.77.77,0,0,1,1.09.07.76.76,0,0,1-.07,1.08l-.1.09A6.37,6.37,0,0,1,51.5,45.57Z"/><path class="cls-1" d="M27.27,24.08a3.87,3.87,0,0,1-3.87-3.87,4.45,4.45,0,0,1,.08-.81l.06-.27L18.4,16.21l-.2.19a3.86,3.86,0,0,1-5.27,0l-.2-.19L7.59,19.13l.06.27a3.72,3.72,0,0,1,.09.81A3.89,3.89,0,1,1,6.5,17.38l.21.19,5.13-2.91-.06-.28a4.36,4.36,0,0,1-.08-.81,3.87,3.87,0,0,1,7.74,0,3.66,3.66,0,0,1-.09.81l-.06.28,5.14,2.91.2-.19a3.87,3.87,0,0,1,2.64-1,3.78,3.78,0,0,1,1.2.2l.27.08L36,6.41l-.17-.22a3.93,3.93,0,1,1,1.89,1.35l-.26-.08L30.19,17.67l.17.22a3.82,3.82,0,0,1,.78,2.32A3.87,3.87,0,0,1,27.27,24.08Zm0-5.95a2.08,2.08,0,1,0,2.08,2.08A2.08,2.08,0,0,0,27.27,18.13Zm-23.4,0A2.08,2.08,0,1,0,6,20.21,2.08,2.08,0,0,0,3.87,18.13Zm11.7-6.64a2.08,2.08,0,1,0,2.08,2.08A2.08,2.08,0,0,0,15.57,11.49ZM39,1.79a2.08,2.08,0,1,0,2.08,2.08A2.08,2.08,0,0,0,39,1.79Z"/><path class="cls-1" d="M13,44.41a.89.89,0,0,1-.89-.89V25.74a.89.89,0,0,1,.89-.89h5.17a.89.89,0,0,1,.9.89V43.52a.89.89,0,0,1-.9.89Zm.9-1.79h3.38v-16H13.88Z"/><path class="cls-1" d="M24.68,44.41a.89.89,0,0,1-.89-.89V32.25a.89.89,0,0,1,.89-.89h5.17a.9.9,0,0,1,.9.89V43.52a.9.9,0,0,1-.9.89Zm.89-1.79H29V33.15H25.57Z"/><path class="cls-1" d="M36.38,44.41a.89.89,0,0,1-.89-.89V17.78a.89.89,0,0,1,.89-.9h5.17a.92.92,0,0,1,.83.55,1,1,0,0,1,.07.35V32.52a.9.9,0,0,1-1.79,0V18.67H37.27V42.62h2.28a.9.9,0,1,1,0,1.79Z"/><path class="cls-1" d="M1.28,44.41a.89.89,0,0,1-.89-.89V32.25a.89.89,0,0,1,.89-.89H6.45a.89.89,0,0,1,.9.89V43.52a.89.89,0,0,1-.9.89Zm.9-1.79H5.56V33.15H2.18Z"/></g></g></svg>