<svg xmlns="http://www.w3.org/2000/svg" viewBox="0 0 63.72 58.7"><defs><style>.cls-1{fill:#fff;}</style></defs><g id="Layer_2" data-name="Layer 2"><g id="Layer_1-2" data-name="Layer 1"><path class="cls-1" d="M31.86,9.46a1,1,0,0,1-1-1V1a1,1,0,0,1,2,0V8.46A1,1,0,0,1,31.86,9.46Z"/><path class="cls-1" d="M23.86,12.34a1,1,0,0,1-.7-.29l-3-3a1,1,0,0,1,0-1.41,1,1,0,0,1,.7-.29,1,1,0,0,1,.71.29l3,3a1,1,0,0,1,.29.7,1,1,0,0,1-1,1Z"/><path class="cls-1" d="M39.67,12.54a1,1,0,0,1-.71-.29,1,1,0,0,1,0-1.42l3.19-3.19a1,1,0,1,1,1.41,1.41l-3.19,3.19A1,1,0,0,1,39.67,12.54Z"/><path class="cls-1" d="M57.42,58.7a1,1,0,0,1-.29,0l-.07,0-.07,0a1,1,0,0,1-.29,0H42.65a1,1,0,0,1-1-1V42.46l-8-11.94A16.23,16.23,0,0,1,32.1,27.7l-.24-.57-.24.57a16.23,16.23,0,0,1-1.51,2.82l-8,11.94v1.07a1,1,0,0,1-2,0V42.15a1,1,0,0,1,.17-.55l8.21-12.2A14,14,0,0,0,30.85,22l0-.65L17.33,34.88a1.05,1.05,0,0,1-.65.23H8a6,6,0,0,0-6,6V56.71H6V42.15a1,1,0,0,1,2,0V56.71H20.07V53.44a1,1,0,0,1,2,0V57.7a1,1,0,0,1-1,1H7a1,1,0,0,1-.29,0l-.07,0-.07,0a1,1,0,0,1-.29,0H1a1,1,0,0,1-1-1V41.08a8,8,0,0,1,8-8H9.49l-.31-.41A6.07,6.07,0,0,1,7.91,29V27.21a6.14,6.14,0,0,1,12.27,0v2l9.88-9.88a1.62,1.62,0,0,1,1.15-.48,1.54,1.54,0,0,1,.56.1l.09,0L32,19a1.54,1.54,0,0,1,.56-.1,1.62,1.62,0,0,1,1.15.48l9.88,9.88v-2a6.14,6.14,0,0,1,12.27,0V29a6.07,6.07,0,0,1-1.27,3.73l-.31.41h1.53a8,8,0,0,1,8,8V57.7a1,1,0,0,1-1,1ZM56.7,46.17a1,1,0,0,1,1,1v9.55h4V41.08a6,6,0,0,0-6-6H47a1,1,0,0,1-.67-.26L32.84,21.33l0,.65a14.07,14.07,0,0,0,2.41,7.42l8.21,12.2a1,1,0,0,1,.17.55V56.71H55.7V47.16A1,1,0,0,1,56.7,46.17Zm-7-23.1a4.15,4.15,0,0,0-4.14,4.14V29a4.14,4.14,0,0,0,8.28,0V27.21A4.14,4.14,0,0,0,49.67,23.07ZM14,23.07a4.14,4.14,0,0,0-4.13,4.14V29a4.14,4.14,0,1,0,8.27,0V27.21A4.14,4.14,0,0,0,14,23.07Z"/></g></g></svg>