<svg xmlns="http://www.w3.org/2000/svg" viewBox="0 0 21.84 21.84"><defs><style>.cls-1{fill:#fab142;fill-rule:evenodd;}</style></defs><g id="Layer_2" data-name="Layer 2"><g id="Layer_1-2" data-name="Layer 1"><path class="cls-1" d="M10.92,0a10.73,10.73,0,0,1,5.51,1.5A11,11,0,0,1,21.84,11a10.92,10.92,0,0,1-2.65,7.17A11.07,11.07,0,0,1,13,21.84V14h2.14l.49-3.08H12.41v-2a1.8,1.8,0,0,1,.38-1.16,1.71,1.71,0,0,1,1.37-.53h2V4.5l-.8-.1a14.35,14.35,0,0,0-1.73-.11,4.29,4.29,0,0,0-3.1,1.1A4.28,4.28,0,0,0,9.33,8.56v2.35H6.86V14H9.33v7.85a10.84,10.84,0,0,1-6.68-3.68A11,11,0,0,1,5.41,1.5,10.76,10.76,0,0,1,10.92,0Z"/></g></g></svg>