<svg xmlns="http://www.w3.org/2000/svg" viewBox="0 0 21.84 21.84"><defs><style>.cls-1{fill:#fab142;}</style></defs><g id="Layer_2" data-name="Layer 2"><g id="Layer_1-2" data-name="Layer 1"><path class="cls-1" d="M10.92,0A10.92,10.92,0,1,0,21.84,10.92,10.92,10.92,0,0,0,10.92,0ZM8.09,16.39H5.36V8.87H8.09ZM6.73,8.19A1.37,1.37,0,1,1,8.09,6.82,1.37,1.37,0,0,1,6.73,8.19ZM17,16.39H14.24v-4.1c0-.76-.2-1.37-.88-1.37-1.17,0-1.17,1.37-1.17,1.37v4.1H9.46V8.87h2.73v1.22s.25-1.22,2.3-1.22c1.56,0,2.49,1.28,2.49,3.42Z"/></g></g></svg>