<svg xmlns="http://www.w3.org/2000/svg" viewBox="0 0 424.54 148.48"><defs><style>.cls-1{fill:#f7e5d4;}.cls-2{fill:#30667b;}.cls-3{fill:#d7e7ea;}.cls-3,.cls-4,.cls-5{stroke:#30667b;stroke-miterlimit:10;stroke-width:3px;}.cls-4{fill:#87bdbf;}.cls-5{fill:#b1d3d5;}</style></defs><g id="Layer_2" data-name="Layer 2"><g id="Layer_1-2" data-name="Layer 1"><path class="cls-1" d="M271.81,64.42c.33-3.05.71-14.48-13-20.47C258.29,40.9,251,29.63,243.1,29c-6.06-.46-14.79,6.22-18,9.3-3.23-3.08-12-9.76-18-9.3-7.88.61-15.19,11.88-15.72,14.93-13.7,6-13.32,17.42-13,20.47-4.32,4.19-11.64,22.91-11.64,25.42,0,3.77,4.88,26.28,23.06,31.86,2.66,13.3,8,29.7,35.14,23.49l.17,0,.17,0c27.16,6.21,32.48-10.19,35.14-23.49,18.18-5.58,23.06-28.09,23.06-31.86C283.45,87.33,276.13,68.61,271.81,64.42Z"/><path class="cls-2" d="M224.82,9.94A1.83,1.83,0,0,1,223,8.12V1.82a1.82,1.82,0,1,1,3.64,0v6.3A1.83,1.83,0,0,1,224.82,9.94Z"/><path class="cls-2" d="M189.23,19.47a1.84,1.84,0,0,1-1.58-.91l-3.15-5.45a1.82,1.82,0,1,1,3.15-1.82l3.15,5.45a1.81,1.81,0,0,1-1.57,2.73Z"/><path class="cls-2" d="M163.17,45.53a1.73,1.73,0,0,1-.91-.25l-5.45-3.15a1.82,1.82,0,0,1-.67-2.48,1.84,1.84,0,0,1,1.58-.91,1.86,1.86,0,0,1,.91.25l5.45,3.15a1.81,1.81,0,0,1,.85,1.1,1.82,1.82,0,0,1-1.76,2.29Z"/><path class="cls-2" d="M286.47,45.53a1.82,1.82,0,0,1-1.76-2.29,1.81,1.81,0,0,1,.85-1.1L291,39a1.81,1.81,0,0,1,2.49.66,1.81,1.81,0,0,1-.67,2.48l-5.45,3.15A1.83,1.83,0,0,1,286.47,45.53Z"/><path class="cls-2" d="M260.41,19.47a1.81,1.81,0,0,1-1.57-2.73L262,11.29a1.82,1.82,0,0,1,2.48-.67,1.86,1.86,0,0,1,.85,1.11,1.8,1.8,0,0,1-.18,1.38L262,18.56A1.84,1.84,0,0,1,260.41,19.47Z"/><path class="cls-2" d="M284,91.14a37.23,37.23,0,0,0-10.73-26.27,18.41,18.41,0,0,0,.3-3.33,18.61,18.61,0,0,0-12.76-17.63l-.16,0-.52-.16-.1,0a18.54,18.54,0,0,0-18.42-16.3,18.89,18.89,0,0,0-16.81,10.31,18.81,18.81,0,0,0-16.73-10.31,18.53,18.53,0,0,0-18.41,16.3l-.17,0-.3.09-.4.13c-.18,0-.35.12-.52.18l-.09,0A18.62,18.62,0,0,0,176.1,61.54a18.41,18.41,0,0,0,.3,3.33,37.52,37.52,0,0,0,11.44,60.52c0,.21,0,.43.1.64a26.35,26.35,0,0,0,2.75,8.3,1.77,1.77,0,1,0,3.13-1.66,22.86,22.86,0,0,1-2.43-7.49c0-.33-.08-.66-.11-1a21.77,21.77,0,0,1-.12-2.28c0-3.94-3.44-5.13-3.54-.57a34,34,0,0,1-10-52.53,18.41,18.41,0,0,0,3.95,5.83,1.77,1.77,0,0,0,2.51,0,1.78,1.78,0,0,0,0-2.51,14.88,14.88,0,0,1-4-7s0,0,0-.08,0,0,0-.06a15,15,0,0,1,9.53-17.55,18.38,18.38,0,0,0,1.22,5.32,1.78,1.78,0,0,0,1.65,1.12,1.82,1.82,0,0,0,.65-.12,1.77,1.77,0,0,0,1-2.3,15,15,0,0,1-1-5.51,1.5,1.5,0,0,0,0-.37,1.76,1.76,0,0,0,.06-.46,15,15,0,0,1,15-14.17A15.15,15.15,0,0,1,223,43.57a9.78,9.78,0,0,0,0,1.62c0,.26,0,.5,0,.74v5.2a19.14,19.14,0,0,0-3.78-3.46,20.09,20.09,0,0,0-11.16-3.52h0a1.78,1.78,0,0,0,0,3.55,16.42,16.42,0,0,1,9.15,2.88A16,16,0,0,1,223,57.93a1.87,1.87,0,0,0,.05.85v84.45a23.45,23.45,0,0,1-8.83,1.7,22.9,22.9,0,0,1-16.09-6.56,1.77,1.77,0,0,0-2.48,2.54,26.42,26.42,0,0,0,18.57,7.57,27,27,0,0,0,10.61-2.15,27.72,27.72,0,0,0,10.69,2.15,26.57,26.57,0,0,0,26-21.29l.06-.22c.1-.52.18-1,.25-1.58A37.43,37.43,0,0,0,284,91.14Zm-22,30.21c0-.74-.06-1.47-.14-2.19a1.77,1.77,0,0,0-3.53.36,21.32,21.32,0,0,1,.13,2.4c0,.68,0,1.35-.09,2a.64.64,0,0,1,0,.07,23,23,0,0,1-22.91,20.92,24.31,24.31,0,0,1-8.92-1.7V59a1.76,1.76,0,0,0,.15-1.09,16,16,0,0,1,5.76-7.35,16.42,16.42,0,0,1,9.15-2.88,1.78,1.78,0,0,0,0-3.55h0a20.09,20.09,0,0,0-11.16,3.52,19.09,19.09,0,0,0-3.88,3.57s.07-7.1,0-7.67a15.19,15.19,0,0,1,15-12.64,15,15,0,0,1,15,14.26v.05l0,.22,0,.08v0a1.5,1.5,0,0,0,0,.37,15,15,0,0,1-15,15,1.78,1.78,0,0,0,0,3.55,18.57,18.57,0,0,0,18.48-17.06,15,15,0,0,1,9.54,17.5s0,.08,0,.11l0,.19a14.79,14.79,0,0,1-3.94,6.92,1.78,1.78,0,0,0,0,2.51,1.77,1.77,0,0,0,2.51,0,18.57,18.57,0,0,0,3.95-5.83,34,34,0,0,1-10,52.53Z"/><path class="cls-2" d="M209.82,62.7a1.77,1.77,0,0,0-1.77-1.77,15,15,0,0,1-10.25-4,1.77,1.77,0,0,0-2.42,2.59,18.48,18.48,0,0,0,12.67,5A1.78,1.78,0,0,0,209.82,62.7Z"/><path class="cls-2" d="M244.51,82.59a9.24,9.24,0,0,1,9,4.24,1.88,1.88,0,0,0,3.32-.3,1.89,1.89,0,0,0-.16-1.78,12.56,12.56,0,0,0-21.55.09,1.89,1.89,0,0,0,3.22,2A9.37,9.37,0,0,1,244.51,82.59Z"/><path class="cls-2" d="M213.43,86.83a1.89,1.89,0,0,0,3.22-2,12.56,12.56,0,0,0-21.55-.09,1.86,1.86,0,0,0-.16,1.78,1.88,1.88,0,0,0,3.32.3,9.24,9.24,0,0,1,9-4.24A9.37,9.37,0,0,1,213.43,86.83Z"/><path class="cls-2" d="M251.08,108.32a1.89,1.89,0,0,0-2.46-1,5.91,5.91,0,0,1-5.06-.41,5.73,5.73,0,0,1-2.44-3.54,1.89,1.89,0,0,0-3.7.8,9.54,9.54,0,0,0,3.1,5.19,17.76,17.76,0,0,1-8.74,10.9h0a17.6,17.6,0,0,1-15,.26,1.78,1.78,0,0,0-1.5,3.22,20.56,20.56,0,0,0,4.11,1.35,20.89,20.89,0,0,0,12.18-.84,32,32,0,0,0,3.21-1.6,21.12,21.12,0,0,0,8.95-11.55,6,6,0,0,0,.67.17,10,10,0,0,0,5.65-.44A1.9,1.9,0,0,0,251.08,108.32Z"/><path class="cls-2" d="M251.08,108.32a1.89,1.89,0,0,0-2.46-1,5.91,5.91,0,0,1-5.06-.41,5.73,5.73,0,0,1-2.44-3.54,1.89,1.89,0,0,0-3.7.8,9.54,9.54,0,0,0,3.1,5.19,17.76,17.76,0,0,1-8.74,10.9h0a17.6,17.6,0,0,1-15,.26,1.78,1.78,0,0,0-1.5,3.22,20.56,20.56,0,0,0,4.11,1.35,20.89,20.89,0,0,0,12.18-.84,32,32,0,0,0,3.21-1.6,21.12,21.12,0,0,0,8.95-11.55,6,6,0,0,0,.67.17,10,10,0,0,0,5.65-.44A1.9,1.9,0,0,0,251.08,108.32Z"/><path class="cls-2" d="M198.42,110.78a10,10,0,0,0,5.65.44,6,6,0,0,0,.67-.17,21.12,21.12,0,0,0,8.95,11.55,32,32,0,0,0,3.21,1.6,20.89,20.89,0,0,0,12.18.84,20.56,20.56,0,0,0,4.11-1.35,1.78,1.78,0,0,0-1.5-3.22,17.6,17.6,0,0,1-15-.26h0a17.76,17.76,0,0,1-8.74-10.9,9.54,9.54,0,0,0,3.1-5.19,1.89,1.89,0,0,0-3.7-.8,5.73,5.73,0,0,1-2.44,3.54,5.91,5.91,0,0,1-5.06.41,1.89,1.89,0,0,0-1.4,3.51Z"/><path class="cls-2" d="M271.62,99.89a1.9,1.9,0,0,0-1-2.48,5.85,5.85,0,0,1-3.32-3.83,5.78,5.78,0,0,1,.73-4.24,1.89,1.89,0,1,0-3.2-2,9.56,9.56,0,0,0-1.42,5.88,9.72,9.72,0,0,0,1.05,3.47c.11.2.23.4.35.59a10.18,10.18,0,0,0,4.34,3.65A1.9,1.9,0,0,0,271.62,99.89Z"/><path class="cls-2" d="M182,100.91a10.12,10.12,0,0,0,4.34-3.65c.13-.19.24-.39.36-.59a9.72,9.72,0,0,0,1-3.47,9.55,9.55,0,0,0-1.43-5.88,1.89,1.89,0,1,0-3.2,2,5.72,5.72,0,0,1,.74,4.24,5.87,5.87,0,0,1-3.32,3.83,1.9,1.9,0,0,0,1.46,3.5Z"/><path class="cls-3" d="M118.49,95.43s-3.47.78-4.26.07c-2.35-2.13-2.63-6-1.51-8.48.44-1,3.89-1.76,3.89-1.76a44.07,44.07,0,0,0-3-7.27s-2.81,1.87-3.77,1.52a7.69,7.69,0,0,1-4.62-7c0-1,2.87-2.86,2.87-2.86a45.9,45.9,0,0,0-5.39-5.41s-1.84,2.8-2.84,2.85a7.69,7.69,0,0,1-7-4.69c-.33-.94,1.56-3.7,1.56-3.7a45.54,45.54,0,0,0-7.41-3.08s-.82,3.38-1.78,3.8a8,8,0,0,1-8.54-1.62c-.69-.76,0-4.09,0-4.09-1-.07-2-.12-3.08-.12-1.31,0-2.6.07-3.88.18,0,0,.61,3.25-.06,4a7.42,7.42,0,0,1-8.36,1.67c-.89-.42-1.44-3.67-1.44-3.67a44.78,44.78,0,0,0-7.06,3s1.89,2.75,1.55,3.69a7.27,7.27,0,0,1-6.63,4.44c-1,0-2.85-2.85-2.85-2.85a46.5,46.5,0,0,0-5.46,5.41s2.81,1.84,2.86,2.85a7.88,7.88,0,0,1-4.8,7.14c-.95.34-3.74-1.56-3.74-1.56a44.93,44.93,0,0,0-3,7.26s3.4,1,3.81,2.06c1,2.52.74,6.54-1.59,8.69-.77.71-4.18,0-4.18,0,0,.89-.09,1.79-.09,2.7a44.64,44.64,0,0,0,.31,5.19s3.22-.65,4,0c1.2,1,.68,4.19,1.31,6.41.11.37.21.49.32.85l-3.74,1.36a44.87,44.87,0,0,0,2.92,7s2.83-1.94,3.8-1.6a7.59,7.59,0,0,1,4.64,6.87c0,.81-2.31,2.31-2.31,2.31l-.62.62a44.89,44.89,0,0,0,5.53,5.5s1.91-2.88,3-2.93a7.49,7.49,0,0,1,6.83,4.53c.35,1-1.6,3.84-1.6,3.84a44.27,44.27,0,0,0,7.21,3l1.54-3.88c.14.05.05.08.19.13,2.38.73,5.5-.84,7.66,1.47.7.76,0,4.13,0,4.13,1.33.12,2.67.19,4,.19,1,0,2.06-.05,3.08-.12,0,0-.72-3.47,0-4.25A7.52,7.52,0,0,1,85,137.58c1,.44,1.85,3.94,1.85,3.94a44.85,44.85,0,0,0,7.37-3s-1.93-2.88-1.57-3.86a7.94,7.94,0,0,1,7.19-4.81c1,0,2.93,2.94,2.93,2.94a45.83,45.83,0,0,0,5.46-5.51s-2.87-1.9-2.92-2.93a7.27,7.27,0,0,1,4.42-6.63c1-.35,3.8,1.58,3.8,1.58a45.59,45.59,0,0,0,2.93-7s-3.3-.29-3.75-1.16c-1.34-2.52-.26-6.12,1.5-7.72.77-.7,4.13-.07,4.13-.07a44,44,0,0,0,.26-4.76C118.61,97.51,118.56,96.47,118.49,95.43ZM73.14,121.12A21.82,21.82,0,1,1,95,99.3,21.84,21.84,0,0,1,73.14,121.12Z"/><path class="cls-3" d="M73.4,111.18A12.63,12.63,0,1,1,86,98.56,12.64,12.64,0,0,1,73.4,111.18Zm0-15.78a3.16,3.16,0,1,0,3.15,3.16A3.16,3.16,0,0,0,73.4,95.4Z"/><path class="cls-4" d="M370.81,81.48A4.86,4.86,0,1,1,365.65,77,4.86,4.86,0,0,1,370.81,81.48Zm-5.51-9.91a10.25,10.25,0,1,0,10.89,9.57A10.24,10.24,0,0,0,365.3,71.57Z"/><path class="cls-4" d="M401.21,75.46a37,37,0,0,0-2.1-7.27,36.3,36.3,0,0,0-3.69-6.86l-5.35,2.17a29.48,29.48,0,0,0-6-5.9l2.28-5.2a35.91,35.91,0,0,0-13.49-5.66L370.81,52a29.71,29.71,0,0,0-8.48-.16l-2.14-5.26a34.16,34.16,0,0,0-7.38,2.1,35.4,35.4,0,0,0-6.63,3.55l2.1,5.17a32.36,32.36,0,0,0-6.39,6.2l-5.14-2.14A36.28,36.28,0,0,0,331,75l4.93,1.94a30.39,30.39,0,0,0-.21,8.62l-5,2a36.28,36.28,0,0,0,2.14,7.49,37.12,37.12,0,0,0,3.56,6.68l5.06-2.06a32.54,32.54,0,0,0,6.29,6.39l-2.12,5.1A36.15,36.15,0,0,0,359.23,117l2.27-5.14a32.28,32.28,0,0,0,8.89,0l2.1,5.17a34.89,34.89,0,0,0,7.22-2.08,34.39,34.39,0,0,0,6.76-3.63L384.34,106a29.85,29.85,0,0,0,6-6.07l5.19,2.25a35.57,35.57,0,0,0,5.71-13.55l-5.39-2.34a30.85,30.85,0,0,0,0-8.69Zm-13,4.9A22.24,22.24,0,1,1,364.52,59.6,22.24,22.24,0,0,1,388.16,80.36Z"/><path class="cls-5" d="M36.22,61.59a17.36,17.36,0,0,0-.35-3.65,17.68,17.68,0,0,0-1.14-3.61L32,54.89a14.47,14.47,0,0,0-2.31-3.35l1.55-2.27a17.27,17.27,0,0,0-5.92-3.91l-1.47,2.3a14.39,14.39,0,0,0-4-.84l-.55-2.69a16,16,0,0,0-3.7.34,17.27,17.27,0,0,0-3.48,1.09l.53,2.66A15.83,15.83,0,0,0,9,50.6L6.74,49.12a17.71,17.71,0,0,0-4,6L5,56.44a14.86,14.86,0,0,0-.87,4.1l-2.59.52a17.91,17.91,0,0,0,.35,3.76A18.13,18.13,0,0,0,3,68.33l2.6-.53A15.63,15.63,0,0,0,8,71.41L6.51,73.65a17.34,17.34,0,0,0,6,4L14,75.38a16.13,16.13,0,0,0,4.24.8l.53,2.65a17.76,17.76,0,0,0,3.64-.34A16.87,16.87,0,0,0,26,77.36l-.54-2.7a14.6,14.6,0,0,0,3.39-2.36l2.27,1.54a17.24,17.24,0,0,0,3.94-6l-2.36-1.6a15.17,15.17,0,0,0,.78-4.14ZM27,62.45a8.2,8.2,0,1,1-7.15-9.14A8.21,8.21,0,0,1,27,62.45Z"/><path class="cls-5" d="M422.61,125.22a18.38,18.38,0,0,0,.43-3.64,17.93,17.93,0,0,0-.36-3.77l-2.8,0a14.47,14.47,0,0,0-1.55-3.76l2-1.9a17.4,17.4,0,0,0-5-5.07L413.44,109a14.29,14.29,0,0,0-3.76-1.67l0-2.76a17.27,17.27,0,0,0-3.7-.45,17,17,0,0,0-3.63.34l0,2.71a15.74,15.74,0,0,0-4,1.56l-1.9-1.92a17.8,17.8,0,0,0-5.13,5l1.84,1.79a15.08,15.08,0,0,0-1.72,3.82l-2.63,0a17.61,17.61,0,0,0-.13,7.41l2.65,0a16.09,16.09,0,0,0,1.61,4L391,130.72a17.45,17.45,0,0,0,5,5.15l2-1.87a15.59,15.59,0,0,0,4,1.68l0,2.71a17.42,17.42,0,0,0,3.62.43,16.35,16.35,0,0,0,3.71-.35l0-2.75a14.76,14.76,0,0,0,3.82-1.59l1.89,2a17.33,17.33,0,0,0,5.11-5l-2-2.06a15.29,15.29,0,0,0,1.64-3.88Zm-9.21-1.11a8.2,8.2,0,1,1-5.06-10.44A8.2,8.2,0,0,1,413.4,124.11Z"/></g></g></svg>