<svg xmlns="http://www.w3.org/2000/svg" viewBox="0 0 21.84 21.84"><defs><style>.cls-1{fill:#fab142;}</style></defs><g id="Layer_2" data-name="Layer 2"><g id="Layer_1-2" data-name="Layer 1"><path class="cls-1" d="M10.92,0A10.92,10.92,0,1,0,21.84,10.92,10.92,10.92,0,0,0,10.92,0ZM16.7,8.42c0,.11,0,.23,0,.34a8.21,8.21,0,0,1-8.29,8.29A8.3,8.3,0,0,1,4,15.74a.08.08,0,0,1,0-.09.06.06,0,0,1,.07,0,5.27,5.27,0,0,0,.68,0,5.62,5.62,0,0,0,3.39-1.11,3,3,0,0,1-2.56-2,.07.07,0,0,1,.08-.09,2.93,2.93,0,0,0,1,0A3,3,0,0,1,4.49,9.6v0a.05.05,0,0,1,0-.06h.06a2.94,2.94,0,0,0,1,.33A3,3,0,0,1,4.91,6,.09.09,0,0,1,5,6,0,0,0,0,1,5,6a8.18,8.18,0,0,0,5.81,3,2.88,2.88,0,0,1-.06-.59,3,3,0,0,1,5.09-2,5.91,5.91,0,0,0,1.78-.68.06.06,0,0,1,.08,0,.08.08,0,0,1,0,.08,3,3,0,0,1-1,1.46A5.52,5.52,0,0,0,18,6.83s.06,0,.09,0a.06.06,0,0,1,0,.08A6,6,0,0,1,16.7,8.42Z"/></g></g></svg>