<svg xmlns="http://www.w3.org/2000/svg" viewBox="0 0 221.75 61.85"><defs><style>.cls-1{fill:#fff;}</style></defs><g id="Layer_2" data-name="Layer 2"><g id="Layer_1-2" data-name="Layer 1"><path class="cls-1" d="M44,34.23V16.59c0-1,.47-1.48,1.35-1.48h.47c.94,0,1.41.5,1.41,1.48V24H57.94V16.59c0-1,.47-1.48,1.35-1.48h.47c.94,0,1.41.5,1.41,1.48V34.23c0,1-.47,1.47-1.41,1.47h-.47c-.88,0-1.35-.5-1.35-1.47V26.81H47.21v7.42c0,1-.47,1.47-1.41,1.47h-.47C44.45,35.7,44,35.2,44,34.23Z"/><path class="cls-1" d="M63,34.76l7.23-18.67c.25-.66.75-1,2.23-1s2,.38,2.23,1L82,34.76c.09.25-.82,1-1.79,1a2,2,0,0,1-1.92-1.51l-1.79-4.62H68.3l-1.79,4.65a1.87,1.87,0,0,1-1.79,1.48C63.78,35.74,62.86,35,63,34.76ZM75.63,27l-3.27-8.62L69.09,27Z"/><path class="cls-1" d="M83.73,34.23V17.06a1.67,1.67,0,0,1,1.73-1.82h5.25c5,0,7.89,2.29,7.89,6.47s-2.76,6.54-8,6.54H87v6a1.32,1.32,0,0,1-1.41,1.47h-.48C84.2,35.7,83.73,35.2,83.73,34.23ZM95.36,21.78c0-2.55-1.6-3.87-4.68-3.87H86.94v7.73h3.71C93.76,25.64,95.36,24.29,95.36,21.78Z"/><path class="cls-1" d="M100.83,34.23V17.06a1.67,1.67,0,0,1,1.73-1.82h5.25c5,0,7.89,2.29,7.89,6.47s-2.77,6.54-8,6.54h-3.61v6a1.32,1.32,0,0,1-1.42,1.47h-.47C101.3,35.7,100.83,35.2,100.83,34.23Zm11.63-12.45c0-2.55-1.6-3.87-4.68-3.87H104v7.73h3.71C110.86,25.64,112.46,24.29,112.46,21.78Z"/><path class="cls-1" d="M122.83,34.23v-7l-7.2-10.82c-.1-.22.5-1.32,2-1.32a1.84,1.84,0,0,1,1.57,1.13l5.22,8.3,5.22-8.3a2,2,0,0,1,1.61-1.13c1.41,0,2.07,1.13,2,1.32l-7.17,10.82v7a1.28,1.28,0,0,1-1.42,1.47h-.44C123.3,35.7,122.83,35.2,122.83,34.23Z"/><path class="cls-1" d="M142.11,33.76V17.06a1.67,1.67,0,0,1,1.73-1.82h6.69c4.44,0,6.86,1.85,6.86,5.28,0,2.2-1.26,3.68-3.59,4.37,3,.69,4.41,2.61,4.41,5,0,3.8-2.43,5.69-7.74,5.69h-6.63A1.67,1.67,0,0,1,142.11,33.76Zm8-9.66c2.38,0,3.89-1.25,3.89-3.2s-1.32-3-4-3h-4.75V24.1Zm.12,8.87c3.27,0,4.62-1,4.62-3.33q0-3.21-4.52-3.21h-5V33Z"/><path class="cls-1" d="M160.74,34v-17a1.68,1.68,0,0,1,1.73-1.82h5.79c5,0,7.61,2.07,7.61,6.1a5.52,5.52,0,0,1-4.78,5.78,7.71,7.71,0,0,1-1.29.19l5.94,7.07c.16.19-.53,1.32-1.88,1.32a2.46,2.46,0,0,1-2.11-1.25l-5.57-6.83H164v6.61a1.32,1.32,0,0,1-1.41,1.47h-.44C161.22,35.7,160.74,35.11,160.74,34Zm7.46-9c3,0,4.4-1.38,4.4-3.59s-1.51-3.58-4.5-3.58h-4.18v7.17Z"/><path class="cls-1" d="M176.49,34.76l7.23-18.67c.25-.66.75-1,2.23-1s2,.38,2.23,1l7.3,18.67c.09.25-.82,1-1.79,1a2,2,0,0,1-1.92-1.51L190,29.61h-8.15L180,34.26a1.87,1.87,0,0,1-1.79,1.48C177.31,35.74,176.39,35,176.49,34.76ZM189.16,27l-3.27-8.62L182.62,27Z"/><path class="cls-1" d="M197.55,16.59c0-1,.47-1.48,1.38-1.48h.44c.94,0,1.41.5,1.41,1.48V34.23c0,1-.47,1.47-1.41,1.47h-.44c-.91,0-1.38-.5-1.38-1.47Z"/><path class="cls-1" d="M204.62,34.23V16.93c0-1.1.53-1.82,1.54-1.82h.53c1,0,1.35.41,1.95,1.23L218.7,30.61v-14c0-1,.41-1.48,1.35-1.48h.38c.88,0,1.32.5,1.32,1.48V33.88c0,1.13-.56,1.82-1.51,1.82H220a1.73,1.73,0,0,1-1.73-1l-10.59-15v14.5c0,1-.44,1.47-1.39,1.47h-.34C205,35.7,204.62,35.2,204.62,34.23Z"/><path class="cls-1" d="M44,56.35a2.05,2.05,0,0,1,1.47-1.73,7.39,7.39,0,0,0,6.13,3.11c2.83,0,4.44-1.16,4.44-3.17,0-2.3-2.39-2.83-5.1-3.46-3.14-.72-6.41-1.82-6.41-5.94,0-3.46,3-5.91,7.33-5.91a9.21,9.21,0,0,1,5.75,1.66,2.69,2.69,0,0,1,1.23,2,2.13,2.13,0,0,1-1.51,1.79,6.66,6.66,0,0,0-5.44-2.73c-2.55,0-4.22,1.22-4.22,3.11,0,2.23,2,2.58,4.82,3.24,3.45.79,6.79,2.14,6.79,6.07,0,3.74-2.9,6.07-7.64,6.07A9.74,9.74,0,0,1,45,58.3,2.85,2.85,0,0,1,44,56.35Z"/><path class="cls-1" d="M71.32,39.25a9.89,9.89,0,0,1,5.76,1.63A3.83,3.83,0,0,1,79,43.55a1.89,1.89,0,0,1-1.88,1.76,6.59,6.59,0,0,0-5.76-3.14c-4.12,0-7,3.11-7,7.64s3,7.67,7.08,7.67a6,6,0,0,0,5.88-3.55c.06-.16,2,.22,2,1.73a4.27,4.27,0,0,1-2,2.92,10,10,0,0,1-6.07,1.83c-6,0-10.25-4.34-10.25-10.54S65.22,39.25,71.32,39.25Z"/><path class="cls-1" d="M81.91,41c0-1,.47-1.48,1.38-1.48h.44c1,0,1.42.5,1.42,1.48V58.65a1.28,1.28,0,0,1-1.42,1.47h-.44c-.91,0-1.38-.5-1.38-1.47Z"/><path class="cls-1" d="M89,58.21V41.48a1.67,1.67,0,0,1,1.73-1.82H102.5c1,0,1.51.5,1.51,1.35v.19c0,.88-.51,1.35-1.51,1.35H92.22v5.69h8c1,0,1.51.44,1.51,1.29v.09c0,.88-.5,1.35-1.51,1.35h-8v6.17h10.47c1,0,1.47.44,1.47,1.29v.15A1.28,1.28,0,0,1,102.69,60h-12A1.65,1.65,0,0,1,89,58.21Z"/><path class="cls-1" d="M106.64,58.65V41.35c0-1.1.54-1.82,1.54-1.82h.54c1,0,1.35.41,2,1.23L120.73,55V41c0-1,.41-1.48,1.35-1.48h.38c.88,0,1.32.5,1.32,1.48V58.3c0,1.13-.57,1.82-1.51,1.82H122a1.72,1.72,0,0,1-1.73-1l-10.6-15v14.5c0,1-.44,1.47-1.38,1.47H108C107.05,60.12,106.64,59.62,106.64,58.65Z"/><path class="cls-1" d="M136.88,39.25a9.86,9.86,0,0,1,5.75,1.63,3.82,3.82,0,0,1,1.92,2.67,1.89,1.89,0,0,1-1.89,1.76,6.57,6.57,0,0,0-5.75-3.14c-4.12,0-7,3.11-7,7.64s3,7.67,7.07,7.67a6,6,0,0,0,5.88-3.55c.06-.16,2,.22,2,1.73a4.27,4.27,0,0,1-2,2.92,10,10,0,0,1-6.07,1.83c-6,0-10.25-4.34-10.25-10.54S130.78,39.25,136.88,39.25Z"/><path class="cls-1" d="M147.18,58.21V41.48a1.67,1.67,0,0,1,1.73-1.82H160.7c1,0,1.51.5,1.51,1.35v.19c0,.88-.5,1.35-1.51,1.35H150.42v5.69h8c1,0,1.5.44,1.5,1.29v.09c0,.88-.5,1.35-1.5,1.35h-8v6.17h10.47c1,0,1.48.44,1.48,1.29v.15A1.29,1.29,0,0,1,160.89,60h-12A1.65,1.65,0,0,1,147.18,58.21Z"/><path class="cls-1" d="M32,56.56a2,2,0,1,1-2.86,0A2,2,0,0,1,32,56.56Z"/><path class="cls-1" d="M19.35,24.74a2,2,0,1,1,2.86,0A2,2,0,0,1,19.35,24.74Z"/><path class="cls-1" d="M29,5.3a2,2,0,1,1,2.86,0A2,2,0,0,1,29,5.3Z"/><path class="cls-1" d="M7,44.1a3,3,0,1,1-4.25,0A3,3,0,0,1,7,44.1Z"/><path class="cls-1" d="M1.42,49.66a4.84,4.84,0,0,0,8.24-3.91l12.76-3.81a8.6,8.6,0,0,0,1.9,2.83,8.72,8.72,0,0,0,5.28,2.51v7a3.86,3.86,0,1,0,3.66,6.48,3.86,3.86,0,0,0-1.82-6.48v-7a8.77,8.77,0,0,0,7.79-7.81h2.63V37.62H39.23a8.77,8.77,0,0,0-7.82-7.79.41.41,0,0,0,0-.11l0-22.12a3.79,3.79,0,0,0,1.81-1,3.86,3.86,0,1,0-5.46,0,3.92,3.92,0,0,0,1.81,1l0,22.11a.37.37,0,0,0,0,.11,8.91,8.91,0,0,0-3,.87l-3-4.74A3.86,3.86,0,1,0,22,27l3,4.74c-.25.21-.5.43-.74.67a8.74,8.74,0,0,0-2.41,7.8L9.14,44a5,5,0,0,0-.87-1.19,4.85,4.85,0,1,0-6.85,6.87ZM22.21,24.73a2,2,0,1,1,0-2.86A2,2,0,0,1,22.21,24.73ZM29,5.3a2,2,0,1,1,2.86,0A2,2,0,0,1,29,5.3ZM32,56.56a2,2,0,1,1-2.86,0A2,2,0,0,1,32,56.56ZM25.6,33.66a6.93,6.93,0,1,1,0,9.81A6.94,6.94,0,0,1,25.6,33.66ZM2.72,44.1a3,3,0,1,1,0,4.25A3,3,0,0,1,2.72,44.1Z"/><path class="cls-1" d="M33.9,40.79a.92.92,0,0,1,0,1.3,4.85,4.85,0,0,1-6.85,0,.92.92,0,0,1,1.3-1.3,3,3,0,0,0,4.25,0A.92.92,0,0,1,33.9,40.79Z"/><circle class="cls-1" cx="28.18" cy="36.75" r="0.98"/><circle class="cls-1" cx="32.81" cy="36.75" r="0.98"/></g></g></svg>