<svg xmlns="http://www.w3.org/2000/svg" viewBox="0 0 21.84 21.84"><defs><style>.cls-1{fill:#fab142;}</style></defs><g id="Layer_2" data-name="Layer 2"><g id="Layer_1-2" data-name="Layer 1"><path class="cls-1" d="M12.73,10.5,10.06,9.11a.43.43,0,0,0-.41,0,.42.42,0,0,0-.19.35v2.79a.41.41,0,0,0,.19.35.43.43,0,0,0,.22.06.34.34,0,0,0,.19-.05l2.67-1.39a.41.41,0,0,0,.22-.37A.4.4,0,0,0,12.73,10.5Z"/><path class="cls-1" d="M10.92,0A10.92,10.92,0,1,0,21.84,10.92,10.92,10.92,0,0,0,10.92,0Zm6.37,12a3.62,3.62,0,0,1-.73,2.71,3.74,3.74,0,0,1-2.69.68H8c-2.9,0-3.43-1.14-3.43-3.39V9.82A4.13,4.13,0,0,1,5,7.26c.45-.59,1.32-.82,3-.82h5.89c1.62,0,2.47.22,2.93.77a4.09,4.09,0,0,1,.49,2.61Z"/></g></g></svg>