<svg xmlns="http://www.w3.org/2000/svg" viewBox="0 0 75 75"><defs><style>.cls-1{fill:#48a9ac}.cls-2{fill:#fff}</style></defs><g id="Layer_2" data-name="Layer 2"><g id="Layer_1-2" data-name="Layer 1"><circle class="cls-1" cx="37.5" cy="37.5" r="37.5" transform="rotate(-89.02 37.496 37.5)"/><path class="cls-2" d="M59.34 55.68h-.66V38.1h.66a.66.66 0 0 0 0-1.32H48.58v-2L49 35a.67.67 0 0 0 .84-.42.66.66 0 0 0-.42-.83l-2.72-.92v-4.61h.66a.66.66 0 0 0 0-1.32h-.66a8.91 8.91 0 0 0-8.54-8.25v-.94h5.32A1.54 1.54 0 0 0 45 16.17v-2.63A1.54 1.54 0 0 0 43.48 12h-6a.66.66 0 0 0-.66.66v6a9 9 0 0 0-5.26 2 .66.66 0 1 0 .83 1A7.59 7.59 0 0 1 37.18 20h.64a7.61 7.61 0 0 1 7.56 6.94H29.62A7.5 7.5 0 0 1 31 23.22a.66.66 0 1 0-1.08-.76 8.79 8.79 0 0 0-1.62 4.44h-.69a.66.66 0 0 0 0 1.32h.66v4.58l-2.72.92A.66.66 0 1 0 26 35l.45-.15v2H15.66a.66.66 0 0 0 0 1.32h.66v17.51h-.66a.66.66 0 0 0 0 1.32h43.68a.66.66 0 1 0 0-1.32zM38.16 13.32h5.32a.22.22 0 0 1 .22.22v2.63a.22.22 0 0 1-.22.22h-5.32zm-8.57 14.9h15.82v4.14l-6.58-2.22a4.18 4.18 0 0 0-2.66 0l-6.58 2.22zm-1.86 6.15l8.86-3a2.84 2.84 0 0 1 1.82 0l8.86 3v2.41H27.73zm-4.14 21.31h-3.32V53h3.32zm0-4h-3.32v-2.17a1.66 1.66 0 0 1 3.32 0zm2.64 4h-1.32v-6.17a3 3 0 1 0-5.95 0v6.17h-1.32V45.3h8.59zm0-11.7h-8.59V38.1h6.43v1.36a2 2 0 0 0 2 2h.18V44zm4.09 11.7h-2.78V41.44h2.78v14.24zm4.28 0h-3V41.44h3zm4.1 0h-2.78V41.44h2.78zm4.66 0H40V41.44h.18a.66.66 0 0 0 0-1.32H26.05a.65.65 0 0 1-.66-.66V38.1h24.22v1.36a.65.65 0 0 1-.66.66h-6.12a.66.66 0 0 0 0 1.32h.53v14.24zm4.1 0h-2.78V41.44h2.78v14.24zm7.27 0h-3.32V53h3.32zm0-4h-3.32v-2.17a1.66 1.66 0 0 1 3.32 0zm2.63 4H56v-6.17a3 3 0 1 0-5.95 0v6.17h-1.28V45.3h8.59zm0-11.7h-8.59v-2.54H49a2 2 0 0 0 2-2V38.1h6.43z"/></g></g></svg>