<svg xmlns="http://www.w3.org/2000/svg" viewBox="0 0 100 76.67"><defs><style>.cls-1{fill:#48a9ac}</style></defs><g id="Layer_2" data-name="Layer 2"><g id="Layer_1-2" data-name="Layer 1"><path class="cls-1" d="M98.33 6.67h-5v-5A1.66 1.66 0 0 0 91.67 0h-35A8.31 8.31 0 0 0 50 3.38 8.31 8.31 0 0 0 43.33 0h-35a1.66 1.66 0 0 0-1.66 1.67v5h-5A1.66 1.66 0 0 0 0 8.33V75a1.67 1.67 0 0 0 1.67 1.67h96.66A1.67 1.67 0 0 0 100 75V8.33a1.66 1.66 0 0 0-1.67-1.66zm-95 66.66V10h3.34v58.33A1.66 1.66 0 0 0 8.33 70h35A5 5 0 0 1 48 73.33zm45-5a8.22 8.22 0 0 0-5-1.71H10V3.33h33.33a5 5 0 0 1 5 5zM50 70.05h.1zm1.67-61.72a5 5 0 0 1 5-5H90v63.34H56.67a8.22 8.22 0 0 0-5 1.71zm45 65H52A5 5 0 0 1 56.67 70h35a1.66 1.66 0 0 0 1.66-1.67V10h3.34z"/><path class="cls-1" d="M75 6.67a6.67 6.67 0 0 0-6.67 6.66v40a1.58 1.58 0 0 0 .24.85l5 8.34a1.66 1.66 0 0 0 2.28.58 1.61 1.61 0 0 0 .58-.58l5-8.34a1.58 1.58 0 0 0 .24-.85v-40A6.67 6.67 0 0 0 75 6.67zm0 51.76l-2.75-4.6L75 52l2.75 1.83zm3.33-8.21l-1.66-1.12V26.67h-3.34V49.1l-1.66 1.12V23.33h6.66zm0-30.22h-6.66v-3.33h6.66zm-6.66-6.67a3.33 3.33 0 1 1 6.66 0zm-58.34-5H45v3.34H13.33zm0 6.67h18.34v3.33H13.33zM35 15h10v3.33H35zm-21.67 6.67H20V25h-6.67zm10 0H45V25H23.33z"/></g></g></svg>