<svg xmlns="http://www.w3.org/2000/svg" viewBox="0 0 75 75"><defs><style>.cls-1{fill:#48a9ac}.cls-2{fill:#fff}</style></defs><g id="Layer_2" data-name="Layer 2"><g id="Layer_1-2" data-name="Layer 1"><circle class="cls-1" cx="37.5" cy="37.5" r="37.5" transform="rotate(-89.02 37.496 37.5)"/><path class="cls-2" d="M59.22 33.05H49.3v-1.91a.79.79 0 0 0-.39-.68l-10.63-6v-3h2.1v1.14a.78.78 0 0 0 .77.78h6.34a.78.78 0 0 0 .78-.78.75.75 0 0 0-.05-.26l-.63-1.81.64-1.77a.77.77 0 0 0-.47-1 .75.75 0 0 0-.26-.05h-2.89V16.6a.77.77 0 0 0-.77-.78h-5.56v-.94a.78.78 0 0 0-1.56 0v9.61l-10.63 6a.76.76 0 0 0-.39.67v1.92h-9.92a.77.77 0 0 0-.78.77v20.3a.78.78 0 0 0 .78.78h43.44a.78.78 0 0 0 .78-.78V33.83a.78.78 0 0 0-.78-.78zM44.61 20.67v-1.36h1.77l-.32 1a.8.8 0 0 0 0 .53l.37 1h-4.5v-.38h1.91a.77.77 0 0 0 .77-.79zm-6.33-3.3h4.78v2.53h-4.78zm-12.58 36h-9.15V34.61h9.15zm11 0h-4.05v-8.89h4.07zm5.63 0h-4.05v-8.89h4.07zm5.43 0H43.9v-9.66a.78.78 0 0 0-.78-.78H31.88a.78.78 0 0 0-.78.78v9.63h-3.88V31.62l10.28-5.79 10.25 5.76v2.23zm10.67 0H49.3V34.61h9.15z"/><path class="cls-2" d="M37.5 28.21a3.25 3.25 0 1 0 3.25 3.24 3.25 3.25 0 0 0-3.25-3.24zm0 4.95a1.7 1.7 0 1 1 1.7-1.7 1.71 1.71 0 0 1-1.7 1.7z"/><path class="cls-2" d="M18.42 36.31H19.970000000000002V39.410000000000004H18.42z"/><path class="cls-2" d="M22.25 36.31H23.8V39.410000000000004H22.25z"/><path class="cls-2" d="M29.58 36.31H32.68V37.86H29.58z"/><path class="cls-2" d="M35.95 36.31H39.050000000000004V37.86H35.95z"/><path class="cls-2" d="M42.32 36.31H45.42V37.86H42.32z"/><path class="cls-2" d="M29.58 39.93H32.68V41.48H29.58z"/><path class="cls-2" d="M35.95 39.93H39.050000000000004V41.48H35.95z"/><path class="cls-2" d="M42.32 39.93H45.42V41.48H42.32z"/><path class="cls-2" d="M18.42 42.42H19.970000000000002V45.52H18.42z"/><path class="cls-2" d="M22.25 42.42H23.8V45.52H22.25z"/><path class="cls-2" d="M18.42 48.53H19.970000000000002V51.63H18.42z"/><path class="cls-2" d="M22.25 48.53H23.8V51.63H22.25z"/><path class="cls-2" d="M51.2 36.31H52.75V39.410000000000004H51.2z"/><path class="cls-2" d="M55.03 36.31H56.58V39.410000000000004H55.03z"/><path class="cls-2" d="M51.2 42.42H52.75V45.52H51.2z"/><path class="cls-2" d="M55.03 42.42H56.58V45.52H55.03z"/><path class="cls-2" d="M51.2 48.53H52.75V51.63H51.2z"/><path class="cls-2" d="M55.03 48.53H56.58V51.63H55.03z"/></g></g></svg>