<svg xmlns="http://www.w3.org/2000/svg" viewBox="0 0 75 75"><defs><style>.cls-1{fill:#48a9ac}.cls-2{fill:#fff}</style></defs><g id="Layer_2" data-name="Layer 2"><g id="Layer_1-2" data-name="Layer 1"><circle class="cls-1" cx="37.5" cy="37.5" r="37.5" transform="rotate(-89.02 37.496 37.5)"/><path class="cls-2" d="M31.69 44.16v-7a2.52 2.52 0 0 0-3.63-2.28V30.6a2.54 2.54 0 0 0-2.54-2.54 2.46 2.46 0 0 0-1.08.26v-2.07a2.54 2.54 0 0 0-5-.64A2.9 2.9 0 0 0 15 28.06V40.4a.73.73 0 0 0 .09.35l4.35 8a1.09 1.09 0 0 0 .13.17l5.68 5.68a2.23 2.23 0 0 1 .64 1.54v3.15a.73.73 0 0 0 .72.73h8.71a.73.73 0 0 0 .73-.73v-9a3.61 3.61 0 0 0-1-2.48zm-2.54-8.11a1.08 1.08 0 0 1 1.09 1.08v5.47l-2.18-2.33v-3.14a1.08 1.08 0 0 1 1.09-1.08zm-3.63-6.54a1.09 1.09 0 0 1 1.09 1.09v8.12l-.49-.53a2.18 2.18 0 0 0-1.59-.69h-.09v-6.9a1.08 1.08 0 0 1 1.08-1.09zm-4.71-3.26a1.09 1.09 0 1 1 2.17 0v11.81a2.14 2.14 0 0 0-.66 1.11l-1.51-1.92v-11zm13.79 32.3h-7.26v-2.43a3.64 3.64 0 0 0-1.06-2.57L20.67 48l-4.22-7.73V28.06a1.45 1.45 0 0 1 2.9 0v9.44a.75.75 0 0 0 .16.45l8 10.16 1.14-.9-4.92-6.27v-1.26a.73.73 0 0 1 .73-.73h.09a.72.72 0 0 1 .53.23l9 9.59a2.15 2.15 0 0 1 .59 1.49zm22.5-33.39a2.93 2.93 0 0 0-1.55.45 2.54 2.54 0 0 0-5 .64v2.07a2.46 2.46 0 0 0-1.08-.26 2.54 2.54 0 0 0-2.54 2.54v4.25a2.52 2.52 0 0 0-3.63 2.28v7l-3.38 3.62a3.61 3.61 0 0 0-1 2.48v9a.73.73 0 0 0 .73.73h8.71a.73.73 0 0 0 .72-.73v-3.11a2.23 2.23 0 0 1 .64-1.54l5.68-5.68a1.09 1.09 0 0 0 .13-.17l4.35-8a.73.73 0 0 0 .12-.33V28.06a2.9 2.9 0 0 0-2.9-2.9zM52 26.25a1.09 1.09 0 1 1 2.17 0v11l-1.51 1.92a2.14 2.14 0 0 0-.66-1.11V26.25zm-3.61 4.35a1.09 1.09 0 1 1 2.17 0v6.9h-.09a2.18 2.18 0 0 0-1.59.69l-.49.53V30.6zm-3.63 6.53a1.09 1.09 0 0 1 2.18 0v3.14l-2.18 2.33zm13.79 3.09L54.33 48l-5.61 5.6a3.64 3.64 0 0 0-1.06 2.57v2.43H40.4v-8.34a2.15 2.15 0 0 1 .6-1.49l8.95-9.59a.72.72 0 0 1 .53-.23h.09a.73.73 0 0 1 .73.73v1.26l-4.92 6.27 1.14.9 8-10.16a.75.75 0 0 0 .16-.45v-9.44a1.45 1.45 0 1 1 2.9 0zM48.37 21a6.34 6.34 0 0 0-2.69-4.84 6.23 6.23 0 0 0-7.62.34l-.56.5-.56-.48a6.23 6.23 0 0 0-7.62-.34 6.44 6.44 0 0 0-.62 10l8.3 7.51a.73.73 0 0 0 1 0l8.31-7.56A6.36 6.36 0 0 0 48.37 21zM37.5 32.17l-7.82-7.11a5 5 0 0 1 .47-7.74 4.78 4.78 0 0 1 5.85.27l1 .88a.75.75 0 0 0 .94 0l1-.88a4.79 4.79 0 0 1 5.85-.27 5 5 0 0 1 .47 7.74z"/></g></g></svg>