<svg xmlns="http://www.w3.org/2000/svg" viewBox="0 0 742.6 452.25"><defs><style>.cls-1{fill:#b1d3d5;fill-rule:evenodd;opacity:.7}.cls-2{fill:#f79424}.cls-3{fill:#e08a21}.cls-4{fill:#48a9ac}</style></defs><g id="Layer_2" data-name="Layer 2"><g id="Layer_1-2" data-name="Layer 1"><path class="cls-1" d="M452 91.42h6.61c1.73 0 2.94-.53 1.86-1.65l-15.15-15.83c2.29 1 5.68.38 4.19-1l-11.78-10.57c-1.64-1.47-5.62-2-13.42-2h-.11c-7.71 0-10.53.57-9.23 2L424.4 73c1.19 1.34 5.82 2 6.12 1L447 89.76a8.12 8.12 0 0 0 5 1.66M416 52c3.44 0 7.35 1.13 9.31 3.09s1.22 4-2.22 4-8.27-2-10.22-4S412.58 52 416 52z"/><path class="cls-2" d="M455.35 82.64c-20.86 0-20.86 15.52 0 15.52s20.85-15.52 0-15.52m0-2.6c11.84 0 21.44 4.7 21.44 11.12s-9.6 11.63-21.44 11.63-21.44-5.21-21.44-11.63S443.51 80 455.35 80z"/><path class="cls-3" d="M440.15 83.21a31.51 31.51 0 0 1 11.2-3l2.36 2.46c-5 .21-8.71 1.37-11 3z"/><path class="cls-2" d="M452 91.42h6.61a3.3 3.3 0 0 0 3.52-3.32l.62-31.62c1.3 2 5.3.75 5.16-1.92l-1.18-21.23c-.16-2.93-3.58-4.06-11.38-4.06h-.12c-7.71 0-11.1 1.14-11.26 4.06l-1.17 21.23c-.15 2.67 3.86 3.91 5.15 1.92l.62 31.62a3.29 3.29 0 0 0 3.43 3.32m3.35-78.75a5.9 5.9 0 0 1 6.22 6.18c0 3.91-2.78 8-6.22 8s-6.22-4.1-6.22-8a5.9 5.9 0 0 1 6.26-6.18z"/><path class="cls-1" d="M475.14 267.17h15.7c4.12.05 7-1.27 4.41-3.95l-36.09-37.57c5.44 2.36 13.5.89 10-2.28l-28-25.22c-3.88-3.49-13.35-4.83-31.88-4.83H409c-18.31 0-25 1.35-21.93 4.83l22.43 25.22c2.82 3.17 13.82 4.64 14.53 2.28L463 263.22c2.72 2.62 8 3.94 12 3.95h.05m-85.61-93.56c8.17 0 17.46 2.68 22.12 7.33s2.9 9.52-5.26 9.52-19.65-4.87-24.31-9.52-.62-7.33 7.54-7.33zm-93.9 36.76h12.52c3.28 0 5.56-1 3.52-3.14l-28.78-30c4.34 1.89 10.76.72 7.95-1.81l-22.33-20.11c-3.09-2.78-10.64-3.85-25.41-3.85h-.22c-14.6 0-19.95 1.08-17.49 3.85l17.88 20.11c2.25 2.53 11 3.7 11.59 1.81l31.13 30c2.17 2.08 6.41 3.13 9.6 3.14m-68.2-74.58c6.51 0 13.92 2.14 17.63 5.85s2.31 7.59-4.19 7.59-15.67-3.88-19.38-7.59-.57-5.85 5.94-5.85zm466.85 74.58h12.51c3.29 0 5.57-1 3.52-3.14l-28.77-30c4.33 1.89 10.76.72 8-1.81L667 155.35c-3.09-2.78-10.64-3.85-25.4-3.85h-.23c-14.59 0-19.94 1.08-17.48 3.85l17.88 20.11c2.25 2.53 11 3.7 11.58 1.81l31.13 30c2.17 2.08 6.42 3.13 9.6 3.14m-68.18-74.62c6.51 0 13.93 2.14 17.63 5.85s2.32 7.59-4.19 7.59-15.66-3.88-19.37-7.59-.57-5.85 5.93-5.85zm-54.46 17.86H584c3.29 0 5.57-1 3.52-3.15l-28.77-29.95c4.33 1.88 10.76.71 7.95-1.82l-22.34-20.1c-3.09-2.79-10.64-3.85-25.4-3.85h-.23c-14.59 0-19.94 1.08-17.48 3.85l17.88 20.1c2.25 2.53 11 3.7 11.58 1.82l31.13 30c2.17 2.09 6.42 3.14 9.6 3.15M503.2 79.07c6.51 0 13.92 2.13 17.63 5.84s2.32 7.59-4.19 7.59-15.64-3.88-19.37-7.59-.57-5.84 5.93-5.84zm151.12 32.65h9.38c2.46 0 4.17-.76 2.63-2.36l-21.54-22.43c3.24 1.41 8.05.53 6-1.36L634 70.51c-2.31-2.08-8-2.88-19-2.88h-.16c-10.94 0-14.94.81-13.1 2.88l13.39 15.06c1.69 1.89 8.25 2.77 8.68 1.36l23.31 22.43c1.63 1.57 4.81 2.35 7.2 2.36m-51.1-55.86c4.87 0 10.42 1.6 13.2 4.38s1.73 5.68-3.14 5.68-11.73-2.9-14.51-5.68-.43-4.38 4.45-4.38zM383.69 91.42h6.61c1.73 0 2.93-.53 1.85-1.65L377 73.94c2.29 1 5.68.38 4.2-1l-11.83-10.57c-1.63-1.47-5.62-2-13.41-2h-.12c-7.7 0-10.53.57-9.23 2L356.05 73c1.19 1.34 5.81 2 6.11 1l16.44 15.76a8.08 8.08 0 0 0 5.07 1.66m-36-39.42c3.43 0 7.34 1.13 9.3 3.09s1.22 4-2.21 4-8.27-2-10.23-4-.3-3.09 3.14-3.09zm-106.8 39.42h6.6c1.74 0 2.94-.53 1.86-1.65l-15.19-15.83c2.29 1 5.68.38 4.2-1l-11.79-10.57c-1.63-1.47-5.62-2-13.41-2H213c-7.71 0-10.53.57-9.23 2L213.23 73c1.19 1.34 5.81 2 6.11 1l16.44 15.82a8.07 8.07 0 0 0 5.06 1.66m-36-39.48c3.44 0 7.35 1.13 9.31 3.09s1.22 4-2.21 4-8.27-2-10.23-4-.3-3.09 3.13-3.09zm-51.66 59.72h9.38c2.46 0 4.17-.76 2.63-2.36l-21.54-22.43c3.24 1.41 8 .53 5.95-1.36l-16.73-15.06c-2.31-2.08-8-2.88-19-2.88h-.16c-10.94 0-14.94.81-13.1 2.88L114 85.57c1.69 1.89 8.25 2.77 8.68 1.36L146 109.36c1.63 1.57 4.81 2.35 7.19 2.36m-51.1-55.86c4.87 0 10.42 1.6 13.2 4.38s1.73 5.68-3.14 5.68-11.74-2.92-14.52-5.68-.43-4.38 4.45-4.38z"/><path class="cls-2" d="M90.31 367.38c-87.83 0-87.83 65.38 0 65.38s87.83-65.38 0-65.38m0-10.95c49.87 0 90.31 19.79 90.31 46.84s-40.43 49-90.31 49S0 430.32 0 403.27s40.44-46.84 90.31-46.84z"/><path class="cls-4" d="M637.18 118.92L642.27 119.77 642.59 123.15 609.57 143.42 602.94 142.38 602.16 138.45 637.18 118.92z"/><path class="cls-2" d="M276.02 222.09L283.95 223.12 286.01 229.28 121.23 367.65 99.6 363.38 102.8 360.74 276.02 222.09z"/><path class="cls-2" d="M471.53 94.4L475.16 92.45 551.63 142.32 543.25 145.71 471.53 94.4z"/><path class="cls-4" d="M275.51 194.98L273.58 199.8 266.99 199 217.52 135.6 172.87 121.99 172.58 119.66 177.95 118.44 217.87 129.68 240.76 101.67 244.17 99.95 247.14 101.11 225.98 129.33 367.88 91.24 370.27 91.95 369.51 94.26 226.09 134.63 275.51 194.98z"/><path class="cls-4" d="M442.9 252.41L443.27 257.82 436.52 260.93 372.26 237.77 330.7 222.79 329.04 217.31 334.82 214.98 442.9 252.41z"/><path class="cls-2" d="M336.42 202.88L331.39 200.1 334.01 195.51 539.77 155.74 546.28 157.92 544.72 161.92 336.42 202.88z"/><path class="cls-3" d="M387.92 185.09l23.35-4.51.38.36c2.43 2.43 3.11 4.92 2 6.74L401.78 190a47.18 47.18 0 0 1-13.86-4.94"/><path class="cls-4" d="M483 246.32c-49.55 0-49.55 36.89 0 36.89s49.56-36.89 0-36.89m0-6.18c28.14 0 51 11.17 51 26.43s-22.82 27.63-51 27.63-51-12.37-51-27.63 22.85-26.43 51-26.43z"/><path class="cls-4" d="M475.14 267.17h15.7c4.08.09 8.26-2.55 8.36-7.89l1.48-75.16c3.08 4.73 12.61 1.79 12.25-4.55l-2.79-50.45c-.39-7-8.52-9.66-27-9.66h-.28c-18.33 0-26.38 2.72-26.77 9.66l-2.79 50.45c-.35 6.34 9.17 9.28 12.25 4.55l1.45 75.16c.1 5.23 4.11 7.87 8.1 7.89h.05M483.1 80c8.16 0 14.78 5.36 14.78 14.67s-6.62 19-14.78 19-14.79-9.73-14.79-19S474.93 80 483.1 80zM659 99.27c-29.58 0-29.58 22 0 22s29.59-22 0-22m0-3.69c16.8 0 30.42 6.67 30.42 15.78s-13.62 16.5-30.42 16.5-30.42-7.39-30.42-16.5S642.21 95.58 659 95.58z"/><path class="cls-4" d="M654.32 111.72h9.38a4.68 4.68 0 0 0 5-4.71l.88-44.87c1.84 2.82 7.53 1.07 7.32-2.72l-1.68-30.12c-.23-4.17-5.09-5.77-16.14-5.77h-.17c-10.94 0-15.75 1.63-16 5.77l-1.67 30.12c-.21 3.79 5.48 5.54 7.32 2.72l.88 44.87a4.66 4.66 0 0 0 4.83 4.71M659.08 0c4.87 0 8.82 3.2 8.82 8.76s-3.9 11.36-8.82 11.36-8.83-5.81-8.83-11.36S654.2 0 659.08 0z"/><path class="cls-2" d="M577.7 137c-39.5 0-39.5 29.4 0 29.4s39.51-29.4 0-29.4m0-4.93c22.44 0 40.62 8.9 40.62 21.07s-18.18 22-40.62 22-40.61-9.87-40.61-22 18.18-21.04 40.61-21.04z"/><path class="cls-3" d="M548.92 138.11a59.21 59.21 0 0 1 21.22-5.66l4.46 4.64c-9.53.4-16.49 2.59-20.89 5.63z"/><path class="cls-2" d="M571.44 153.65H584a6.24 6.24 0 0 0 6.67-6.28l1.18-59.91c2.45 3.77 10 1.43 9.76-3.63l-2.22-40.21c-.31-5.57-6.8-7.71-21.56-7.71h-.23c-14.6 0-21 2.17-21.33 7.71L554 83.82c-.28 5.06 7.32 7.4 9.77 3.63l1.23 59.91a6.22 6.22 0 0 0 6.45 6.29m6.34-149.17c6.51 0 11.78 4.28 11.78 11.69s-5.27 15.18-11.78 15.18S566 23.59 566 16.17s5.28-11.69 11.79-11.69zM301.8 193.1c-41 0-41 30.55 0 30.55s41-30.55 0-30.55m0-5.11c23.3 0 42.19 9.25 42.19 21.89s-18.89 22.88-42.19 22.88-42.19-10.25-42.19-22.88S278.5 188 301.8 188z"/><path class="cls-3" d="M272.22 194.07a61.58 61.58 0 0 1 21.27-5.68l4.6 4.8c-9.45.45-16.42 2.64-20.92 5.64z"/><path class="cls-2" d="M295.3 210.37h13a6.48 6.48 0 0 0 6.92-6.53l1.23-62.23c2.55 3.91 10.44 1.48 10.14-3.78l-2.31-41.77c-.32-5.78-7-8-22.39-8h-.23c-15.18 0-21.85 2.25-22.17 8l-2.31 41.77c-.29 5.26 7.6 7.69 10.15 3.78l1.22 62.23a6.46 6.46 0 0 0 6.71 6.53m6.59-154.95c6.76 0 12.24 4.44 12.24 12.15s-5.48 15.76-12.24 15.76-12.24-8-12.24-15.76 5.52-12.15 12.28-12.15z"/><path class="cls-4" d="M387 82.64c-20.85 0-20.85 15.52 0 15.52s20.85-15.52 0-15.52m0-2.6c11.84 0 21.44 4.7 21.44 11.12s-9.6 11.63-21.44 11.63-21.44-5.21-21.44-11.63S375.15 80 387 80z"/><path class="cls-4" d="M383.69 91.42h6.61a3.29 3.29 0 0 0 3.51-3.32l.63-31.62c1.29 2 5.3.75 5.15-1.92l-1.17-21.23c-.17-2.93-3.59-4.06-11.38-4.06h-.12c-7.71 0-11.1 1.14-11.26 4.06l-1.18 21.23c-.15 2.67 3.86 3.91 5.16 1.92l.62 31.62a3.29 3.29 0 0 0 3.41 3.33M387 12.67a5.9 5.9 0 0 1 6.22 6.18c0 3.91-2.79 8-6.22 8s-6.23-4.1-6.23-8a5.9 5.9 0 0 1 6.23-6.18zM244.17 82.64c-20.85 0-20.85 15.52 0 15.52s20.85-15.52 0-15.52m0-2.6c11.84 0 21.44 4.7 21.44 11.12s-9.6 11.63-21.44 11.63-21.44-5.21-21.44-11.63S232.33 80 244.17 80z"/><path class="cls-4" d="M240.87 91.42h6.61a3.29 3.29 0 0 0 3.52-3.33l.63-31.62c1.29 2 5.3.75 5.15-1.92l-1.18-21.23c-.17-2.93-3.59-4.06-11.39-4.06h-.11c-7.71 0-11.1 1.14-11.27 4.06l-1.17 21.23c-.15 2.67 3.86 3.91 5.15 1.92l.63 31.62a3.29 3.29 0 0 0 3.4 3.33m3.34-78.75a5.9 5.9 0 0 1 6.22 6.18c0 3.91-2.78 8-6.22 8s-6.22-4.1-6.22-8a5.9 5.9 0 0 1 6.25-6.18zm-86.31 86.6c-29.58 0-29.58 22 0 22s29.59-22 0-22m0-3.69c16.8 0 30.42 6.67 30.42 15.78s-13.62 16.5-30.42 16.5-30.42-7.39-30.42-16.5 13.62-15.78 30.42-15.78z"/><path class="cls-4" d="M153.18 111.72h9.38a4.68 4.68 0 0 0 5-4.71l.88-44.87c1.84 2.82 7.53 1.07 7.32-2.72l-1.68-30.12c-.23-4.17-5.09-5.77-16.15-5.77h-.16c-10.94 0-15.75 1.63-16 5.77l-1.67 30.12c-.21 3.79 5.48 5.54 7.31 2.72l.89 44.87a4.66 4.66 0 0 0 4.83 4.71M157.93 0c4.88 0 8.83 3.2 8.83 8.76s-3.95 11.36-8.83 11.36-8.82-5.81-8.82-11.36S153.06 0 157.93 0zM700.4 193.1c-41 0-41 30.55 0 30.55s41-30.55 0-30.55m0-5.11c23.3 0 42.2 9.25 42.2 21.89s-18.89 22.88-42.2 22.88-42.19-10.25-42.19-22.88S677.1 188 700.4 188z"/><path class="cls-4" d="M693.9 210.37h13a6.49 6.49 0 0 0 6.92-6.53l1.22-62.23c2.55 3.91 10.44 1.48 10.15-3.78l-2.32-41.77c-.32-5.78-7-8-22.39-8h-.23c-15.17 0-21.85 2.25-22.16 8l-2.32 41.77c-.29 5.26 7.6 7.69 10.15 3.78l1.22 62.23a6.47 6.47 0 0 0 6.71 6.53m6.59-154.95c6.76 0 12.24 4.44 12.24 12.15s-5.48 15.76-12.24 15.76-12.24-8-12.24-15.76 5.53-12.15 12.29-12.15z"/><path class="cls-4" d="M520.99 252.41L520.62 257.82 527.37 260.93 670.54 222.79 672.21 217.31 666.42 214.98 520.99 252.41z"/><path class="cls-2" d="M116 406.5c2.85 2 2.85 5.15 0 7.12-15 10.38-39.31 10.38-54.29.05-2.85-2-2.86-5.16 0-7.13a9.75 9.75 0 0 1 10.31 0c9.29 6.41 24.39 6.4 33.66 0a9.73 9.73 0 0 1 10.32-.04z"/><ellipse class="cls-2" cx="70.71" cy="384.37" rx="7.74" ry="5.35"/><ellipse class="cls-2" cx="107.34" cy="384.37" rx="7.74" ry="5.35"/></g></g></svg>