<svg xmlns="http://www.w3.org/2000/svg" viewBox="0 0 100 100"><defs><style>.cls-1{fill:#f79424}</style></defs><g id="Layer_2" data-name="Layer 2"><g id="Layer_1-2" data-name="Layer 1"><path class="cls-1" d="M53.13 76.56v6.25a1.56 1.56 0 0 0 1.56 1.56h18.75A1.56 1.56 0 0 0 75 82.81v-6.25A1.56 1.56 0 0 0 73.44 75H54.69a1.56 1.56 0 0 0-1.56 1.56zm3.12 1.56h15.63v3.13H56.25z"/><path class="cls-1" d="M87.16 44.34l-.07-.06a1.73 1.73 0 0 0-.25-.21c-.08 0-.15-.11-.23-.15a.92.92 0 0 0-.28-.09 1.07 1.07 0 0 0-.31-.06H13.98a1.07 1.07 0 0 0-.31.06 1.31 1.31 0 0 0-.28.09c-.08 0-.15.1-.23.15a1.27 1.27 0 0 0-.25.21s-.05 0-.07.06L.34 60a1.56 1.56 0 0 0 1.22 2.5H12.5v34.37a3.13 3.13 0 0 0 3.13 3.13h68.75a3.13 3.13 0 0 0 3.12-3.13V62.5h10.94a1.57 1.57 0 0 0 1.41-.89 1.59 1.59 0 0 0-.19-1.61zm-72.35 2.53h24.13l-10 12.5H4.81zm.82 15.63h14.06a1.58 1.58 0 0 0 1.22-.59l9.72-12.14v47.1h-25zm68.75 34.37H43.75v-47.1l9.72 12.14a1.55 1.55 0 0 0 1.22.59h29.69zm-28.94-37.5l-10-12.5h39.74l10 12.5zM40.89 26.4l-1.61 9.41a1.56 1.56 0 0 0 .62 1.53 1.55 1.55 0 0 0 1.64.12L50 33l8.46 4.44a1.56 1.56 0 0 0 2.26-1.64l-1.61-9.4L66 19.73a1.57 1.57 0 0 0 .4-1.6 1.59 1.59 0 0 0-1.27-1.07l-9.45-1.37-4.28-8.57a1.63 1.63 0 0 0-2.8 0l-4.23 8.57-9.46 1.37a1.59 1.59 0 0 0-1.26 1.07 1.57 1.57 0 0 0 .4 1.6zm4.74-7.74a1.56 1.56 0 0 0 1.18-.85L50 11.34l3.19 6.47a1.56 1.56 0 0 0 1.18.85l7.13 1-5.16 5a1.56 1.56 0 0 0-.45 1.39l1.22 7.1-6.38-3.35a1.57 1.57 0 0 0-1.46 0l-6.38 3.35 1.22-7.1a1.56 1.56 0 0 0-.45-1.39l-5.16-5zm-32.75 3.26a1.56 1.56 0 0 0-.77 3c.23.06 5.55 1.53 8.31 8.44a1.58 1.58 0 0 0 1.46 1 1.49 1.49 0 0 0 .58-.11 1.56 1.56 0 0 0 .87-2C19.94 23.77 13.17 22 12.88 21.92zM3.91 25A3.91 3.91 0 1 0 0 21.09 3.91 3.91 0 0 0 3.91 25zm0-4.69a.78.78 0 1 1-.78.78.78.78 0 0 1 .78-.78zm10.93-12.5a3.91 3.91 0 1 0-3.9-3.9 3.91 3.91 0 0 0 3.9 3.9zm0-4.69a.79.79 0 1 1 0 1.57.79.79 0 0 1 0-1.57zm2.81 6.71a1.56 1.56 0 0 0 0 2.21A21.6 21.6 0 0 1 22 19.25a1.56 1.56 0 0 0 1.48 1.06 1.4 1.4 0 0 0 .49-.08 1.56 1.56 0 0 0 1-2 24.39 24.39 0 0 0-5.06-8.43 1.56 1.56 0 0 0-2.26.03zm69.47 12.09c-.29.07-7.06 1.86-10.45 10.31a1.56 1.56 0 0 0 .88 2 1.43 1.43 0 0 0 .58.11 1.58 1.58 0 0 0 1.45-1c2.76-6.86 8.08-8.34 8.31-8.34a1.56 1.56 0 0 0-.77-3zM96.09 25a3.91 3.91 0 1 0-3.9-3.91 3.91 3.91 0 0 0 3.9 3.91zm0-4.69a.78.78 0 1 1 0 1.56.78.78 0 0 1 0-1.56zM85.16 7.81a3.91 3.91 0 1 0-3.91-3.9 3.91 3.91 0 0 0 3.91 3.9zm0-4.69a.79.79 0 1 1-.78.79.78.78 0 0 1 .78-.79zm-9.09 17.11a1.4 1.4 0 0 0 .49.08A1.54 1.54 0 0 0 78 19.24 21.41 21.41 0 0 1 82.35 12a1.56 1.56 0 1 0-2.2-2.21 24.31 24.31 0 0 0-5.07 8.43 1.56 1.56 0 0 0 .99 2.01z"/></g></g></svg>