<svg xmlns="http://www.w3.org/2000/svg" viewBox="0 0 100 100"><defs><style>.cls-1{fill:#f79424}</style></defs><g id="Layer_2" data-name="Layer 2"><g id="Layer_1-2" data-name="Layer 1"><g id="Line_cutting_stoke_Expand" data-name="Line cutting stoke Expand"><path class="cls-1" d="M96.67 96.25a.42.42 0 0 1-.42.42H50V100h46.25a3.75 3.75 0 0 0 3.75-3.75V36.67h-3.33zM96.25 0H35.42a3.75 3.75 0 0 0-3.75 3.75v29.58H35V3.75a.42.42 0 0 1 .42-.42h60.83a.42.42 0 0 1 .42.42v29.58H100V3.75A3.75 3.75 0 0 0 96.25 0z"/><path class="cls-1" d="M90.49 40.49L80 51l-3.82-3.83-2.36 2.36 5 5a1.67 1.67 0 0 0 2.36 0l11.67-11.68z"/><path class="cls-1" d="M68.33 60A1.67 1.67 0 0 0 70 61.67h16.67v-3.34h-15v-15h11.66V40H70a1.67 1.67 0 0 0-1.67 1.67zm7.85 15.49l-2.36 2.36 5 5a1.67 1.67 0 0 0 2.36 0l11.67-11.67-2.36-2.36L80 79.31z"/><path class="cls-1" d="M68.33 88.33A1.67 1.67 0 0 0 70 90h16.67v-3.33h-15v-15h11.66v-3.34H70A1.67 1.67 0 0 0 68.33 70zm22.16-77.84L80 21l-3.82-3.83-2.36 2.36 5 5a1.67 1.67 0 0 0 2.36 0l11.67-11.68z"/><path class="cls-1" d="M68.33 11.67V30A1.67 1.67 0 0 0 70 31.67h16.67v-3.34h-15v-15h11.66V10H70a1.67 1.67 0 0 0-1.67 1.67zm-22.15 5.48l-2.36 2.36 5 5a1.67 1.67 0 0 0 2.36 0l11.67-11.66-2.36-2.36L50 21z"/><path class="cls-1" d="M38.33 11.67V30A1.67 1.67 0 0 0 40 31.67h16.67v-3.34h-15v-15h11.66V10H40a1.67 1.67 0 0 0-1.67 1.67zm25 56.66a31.67 31.67 0 0 0-63.33 0h3.33a28.38 28.38 0 1 1 .18 3.15l-3.32.37a31.67 31.67 0 0 0 63.14-3.52z"/><path class="cls-1" d="M30 70.87L22.29 77l2.09 2.61L32.71 73a1.69 1.69 0 0 0 .62-1.3V55H30z"/><path class="cls-1" d="M33.33 46.73a21.79 21.79 0 0 1 4.53.84l1-3.2a25.09 25.09 0 1 0 3.57 1.38l-1.43 3a21.43 21.43 0 0 1 4.8 3.13l-2.3 2.3 2.36 2.36 2.29-2.3a21.79 21.79 0 0 1 5.17 12.42H50V70h3.27a21.55 21.55 0 0 1-5.16 12.42l-2.3-2.3-2.36 2.36 2.31 2.3a21.58 21.58 0 0 1-12.43 5.16v-3.27H30v3.27a21.55 21.55 0 0 1-12.42-5.16l2.3-2.3-2.36-2.36-2.3 2.3A21.55 21.55 0 0 1 10.06 70h3.27v-3.33h-3.27a21.58 21.58 0 0 1 5.16-12.43l2.3 2.31 2.36-2.36-2.3-2.3A21.55 21.55 0 0 1 30 46.73V50h3.33z"/></g></g></g></svg>